<svg width="128" height="145" viewBox="0 0 128 145" fill="none" xmlns="http://www.w3.org/2000/svg">
<path fill-rule="evenodd" clip-rule="evenodd" d="M50.1474 101.006C77.8431 101.006 100.295 78.3952 100.295 50.5031C100.295 22.611 77.8431 0 50.1474 0C22.4518 0 0 22.611 0 50.5031C0 78.3952 22.4518 101.006 50.1474 101.006ZM49.646 87.8754C70.4177 87.8754 87.2565 70.9171 87.2565 49.9981C87.2565 29.079 70.4177 12.1207 49.646 12.1207C28.8742 12.1207 12.0354 29.079 12.0354 49.9981C12.0354 70.9171 28.8742 87.8754 49.646 87.8754Z" fill="black"/>
<path d="M83.918 82.8251L123.022 129.074C125.771 132.326 125.38 137.209 122.147 139.981V139.981C118.915 142.753 114.065 142.364 111.316 139.112L72.2123 92.8633L83.918 82.8251Z" fill="black"/>
</svg>
