<svg width="125" height="102" viewBox="0 0 125 102" fill="none" xmlns="http://www.w3.org/2000/svg">
<path fill-rule="evenodd" clip-rule="evenodd" d="M96.0527 52.4167H30.2632V92C30.2632 97.5228 34.7403 102 40.2632 102L52.6316 102V74.7708C52.6316 72.0094 54.8702 69.7708 57.6316 69.7708H68.6842C71.4456 69.7708 73.6842 72.0094 73.6842 74.7708V102L86.0527 102C91.5755 102 96.0527 97.5228 96.0527 92V52.4167Z" fill="black"/>
<path d="M58.9976 3.43756C60.9424 1.52875 64.0576 1.52875 66.0024 3.43755L107.897 44.5566C111.092 47.6927 108.871 53.125 104.394 53.125H20.6057C16.1286 53.125 13.9082 47.6927 17.1034 44.5566L58.9976 3.43756Z" fill="black"/>
</svg>
