<svg width="128" height="128" viewBox="0 0 128 128" fill="none" xmlns="http://www.w3.org/2000/svg">
<path fill-rule="evenodd" clip-rule="evenodd" d="M64 110.035C89.4245 110.035 110.035 89.4245 110.035 64C110.035 38.5755 89.4245 17.9649 64 17.9649C38.5755 17.9649 17.9649 38.5755 17.9649 64C17.9649 89.4245 38.5755 110.035 64 110.035ZM64 87.5789C77.0223 87.5789 87.5789 77.0223 87.5789 64C87.5789 50.9777 77.0223 40.421 64 40.421C50.9777 40.421 40.421 50.9777 40.421 64C40.421 77.0223 50.9777 87.5789 64 87.5789Z" fill="black"/>
<path d="M49.4035 10C49.4035 4.47716 53.8807 0 59.4035 0H68.5965C74.1193 0 78.5965 4.47715 78.5965 10V22.4561H49.4035V10Z" fill="black"/>
<path d="M118 78.5965C123.523 78.5965 128 74.1193 128 68.5965V59.4035C128 53.8807 123.523 49.4035 118 49.4035H105.544V78.5965H118Z" fill="black"/>
<path d="M15.4032 91.7705C11.4979 95.6757 11.4979 102.007 15.4032 105.913L21.9036 112.413C25.8088 116.318 32.1405 116.318 36.0457 112.413L44.8535 103.605L24.211 82.9626L15.4032 91.7705Z" fill="black"/>
<path d="M112.597 91.7705C116.502 95.6757 116.502 102.007 112.597 105.913L106.096 112.413C102.191 116.318 95.8595 116.318 91.9543 112.413L83.1465 103.605L103.789 82.9626L112.597 91.7705Z" fill="black"/>
<path d="M49.4035 118C49.4035 123.523 53.8807 128 59.4035 128H68.5965C74.1193 128 78.5965 123.523 78.5965 118V105.544H49.4035V118Z" fill="black"/>
<path d="M10 78.5965C4.47716 78.5965 0 74.1193 0 68.5965V59.4035C0 53.8807 4.47715 49.4035 10 49.4035H22.4561V78.5965H10Z" fill="black"/>
<path d="M91.9543 15.587C95.8595 11.6817 102.191 11.6817 106.096 15.587L112.597 22.0874C116.502 25.9926 116.502 32.3243 112.597 36.2295L103.789 45.0373L83.1465 24.3948L91.9543 15.587Z" fill="black"/>
<path d="M36.0457 15.587C32.1405 11.6817 25.8088 11.6817 21.9036 15.587L15.4032 22.0874C11.4979 25.9926 11.4979 32.3243 15.4032 36.2295L24.211 45.0373L44.8536 24.3948L36.0457 15.587Z" fill="black"/>
</svg>
