<svg width="128" height="128" viewBox="0 0 128 128" fill="none" xmlns="http://www.w3.org/2000/svg">
<circle cx="64" cy="64" r="64" fill="#0F3817"/>
<path fill-rule="evenodd" clip-rule="evenodd" d="M28.16 117.031V110.72C28.16 91.0439 44.1106 75.0933 63.7867 75.0933C83.4627 75.0933 99.4133 91.0439 99.4133 110.72V117.318C116.645 105.85 128 86.2509 128 64C128 28.6538 99.3462 0 64 0C28.6538 0 0 28.6538 0 64C0 86.0667 11.1679 105.525 28.16 117.031ZM83.6267 44.3733C83.6267 56.1554 74.0754 65.7067 62.2933 65.7067C50.5113 65.7067 40.96 56.1554 40.96 44.3733C40.96 32.5913 50.5113 23.04 62.2933 23.04C74.0754 23.04 83.6267 32.5913 83.6267 44.3733Z" fill="white"/>
</svg>
